<svg xmlns="http://www.w3.org/2000/svg" width="16" height="16" viewBox="0 0 16 16">
    <g fill="none" fill-rule="evenodd">
        <g fill="#000" fill-rule="nonzero">
            <g>
                <path d="M9.133 7.984l6.553-6.518c.315-.31.315-.814 0-1.124-.313-.311-.822-.311-1.135 0L8.003 6.853 1.395.245C1.08-.07.572-.07.259.245c-.313.315-.313.824 0 1.139l6.603 6.604-6.627 6.59c-.313.311-.313.815 0 1.125.313.311.822.311 1.136 0l6.621-6.585 6.582 6.583c.314.314.823.314 1.136 0 .314-.315.314-.825 0-1.14L9.133 7.985z" transform="translate(-986 -114) translate(972 100) translate(14 14)"/>
            </g>
        </g>
    </g>
</svg>
