<svg xmlns="http://www.w3.org/2000/svg" xmlns:xlink="http://www.w3.org/1999/xlink" width="141" height="171" viewBox="0 0 141 171">
    <defs>
        <path id="rge55g7nla" d="M0 0.005L1.744 0.005 1.744 2.75 0 2.75z"/>
    </defs>
    <g fill="none" fill-rule="evenodd">
        <g>
            <g>
                <g>
                    <path fill="#BC3939" d="M97.643 38.838c-1.018-1.683-3.033-2.483-4.929-1.955-1.895.528-3.206 2.255-3.206 4.22 0 5.349-4.353 9.699-9.702 9.699s-9.701-4.35-9.701-9.698V4.382c0-1.772-1.069-3.37-2.707-4.048-1.638-.679-3.523-.304-4.776.95-.493.492-12.18 12.244-24.022 30-6.984 10.47-12.557 20.856-16.563 30.869-5.075 12.685-7.65 24.828-7.65 36.093 0 28.294 23.029 51.313 51.334 51.313 28.305 0 51.333-23.02 51.333-51.313.001-18.112-6.53-38.1-19.411-59.408" transform="translate(-110 -34) translate(110 34) translate(.194)"/>
                    <path fill="#FFF" d="M34.633 115.924c1.093.286.549 2.725-.37 2.892-1.081.198-1.27-1.785-1.056-2.502.557.336.212 1.533.913 1.202.446-.21.379-1.184.513-1.592m-.762 6.34c-1.047 1.364-3.386-.115-2.507-1.44.33.113.996.457 1.381.411.308-.036.563-.417.86-.416.801 0 .653.94.266 1.445m-2.005-8.372c-.83.38-1.008.559-1.143 1.43-.137.886-.265 1.771-.417 2.655.497-.263.588-.832.912-1.24l.365.673c.171-.097.331-.092.48.016.24.374.089.93.015 1.322.8-.075 1.139.831.332 1.198-.836.38-1.213-.656-1.242-1.328-.311.378-.632.176-.85.37-.217.194-.302.6-.38 1.043-.127.728-.452 1.78-.15 2.51.446 1.086 1.87 1.65 2.917 1.784 2.25.138 4.382-.943 5.766-2.765.34-.449.69-.907.894-1.439l.133-.404c.215-.372.12-.548-.282-.527-.227-.316-.802-.422-.638-.994.123-.432.578-.439.973-.574-.197-.336-.315-.505-.596-.803-.732.668-2.06 1.98-2.575.445-.247-.737.188-1.442.08-2.153-.044-.294-.412-1.045-.625-1.22-1.133-.938-2.766-.55-3.97.001M24.746 81.834c-.923.46-1.756.982-2.188 2.004.782-.068 1.81-1.12 2.564-1.514.51-.267 1.898-.584 2.05-1.189.13-.525-2.224.6-2.426.7M3.376 92.178c-.007.273.014 1.29.45 1.251.408-.036.213-2.136.213-2.486-.504.288-.646.57-.663 1.235M50.268 93.16c-.018.628 1.252 1.836 1.725 1.111.399-.609-1.693-2.363-1.725-1.112M40.59 119.363c.221 1.141-.28 2.156-.625 3.197.83-.405 1.658-.811 2.487-1.217-.449-.814-1.256-1.285-1.863-1.98M53.546 88.46c-.304-.067-1.506.854-1.732.994-1.126.702-2.225 1.456-3.323 2.2.42 0 .802-.146 1.22-.149.497-.004.853.194 1.337.081 1.04-.243 2.248-1.362 3.127-1.936-.105-.243-.316-1.12-.629-1.19M53.11 92.31l.924.41.112-.664.03-.402c-.362.212-.81.313-1.067.655M72.65 114.41c.355.67.664 1.366.82 2.111 1.401-.635 2.73-1.761 3.88-2.77 1.32-1.158 2.503-2.371 3.469-3.87-.582.03-1.865 1.903-1.88-.136-.007-1.04 1.416-2.065 1.858-3.03-1.099-.621-2.106 3.092-3.367 2.192-1.215-.867.702-3.849 1.07-4.79-.712-.474-4.771 4.84-5.359 5.52-.368.425-1.237.992-1.444 1.488-.124.296-.141 1.234-.082 1.506.125.568.754 1.25 1.035 1.778M54.175 145.603c.067.02.136.038.209.052.196.037.36.05.502.044-.142-.005-.289-.02-.444-.052-.055-.011-.148-.027-.267-.044M49.957 76.764c.18.77 1.213-.048 1.86-.227.641-.178 2.458-.202 2.713-.915-.895-.999-5.093-1.061-4.573 1.142M60.929 127.806c-.67.262-1.302.526-1.957.84-.617.294-1.834.558-2.31 1.027.961.49 1.942.864 2.947 1.247.446.17 1.141.616 1.634.504.403-.092.532-.728.744-1.154.774-1.558 1.699-2.814 2.846-4.098-.533-.402-3.236 1.372-3.904 1.634M56.662 131.441c-.224-.108-.465-.233-.71-.355.207.133.404.239.565.302l.145.053M79.114 157.754c-1.373-.142-2.6-.11-3.855-.735-.092.492-.12.9-.097 1.4-.061.754-.214 1.495-.385 2.23-.061.264-.406 1.097-.346 1.394.1.49-.033.175.397.43.449.268.97.252 1.462.333.303.05 1.413.572 1.6.49.326-.144.316-.653.674-.854.488-.275 1.207-.04 1.667.175 1.231.574 2.077 1.762 3.268 2.412 2.115 1.155 4.625 1.794 6.984 2.058 1.279.143 2.587.393 3.849.094.995-.236 2.287-.214 2.828-1.28-4.805-1.322-12.139-2.938-14.039-8.45-1.033.936-2.758.432-4.007.303M39.809 85.341c-.556-.442-.955 1.038-.905 1.34.406-.037 1.456-.902.905-1.34M75.846 154.177c0 1.033-.066 1.039.96 1.26.716.154 1.442.24 2.166.348 1.274.19 2.689.72 3.978.447-.031-.179-.13-1.388-.263-1.508-.076-.067-.771.023-.88.022-1.085.14-2.125.088-3.21-.053-.913-.119-1.842-.516-2.75-.516M28.11 69.37c-1.99.057-4.07.469-5.955 1.082-.468.152-2.442.694-2.026 1.48.274.519 1.756-.215 2.204-.337 1.92-.525 3.896-.87 5.862-1.186.476-.077 2.091-.069 2.174-.676.102-.74-1.697-.364-2.259-.363M135.857 121.285c-.57 1.042-1.072 2.135-1.705 3.145-1.186 1.889-2.35 3.904-3.858 5.541-.684.742-1.262 1.577-2.05 2.246-.36.305-1.05.556-1.315.938-.25.36.03.59-.066 1.022-.097.441-.545.913-.737 1.338-.252.56-.487 1.12-.768 1.666-.307.596-.391.907-.474 1.49-.09.637.187.703-.37 1.29l3.027 1.333 1.021.45.216-.403c.277-.27.532-.933.69-1.288.663-1.483 1.412-2.972 2.17-4.444-1.209-1.705.04-2.449 1.024-3.864.786-1.133 1.51-2.38 2.008-3.645 1.247-3.162 2.372-6.102 2.988-9.447-.847.386-1.377 1.857-1.801 2.632M63.003 67.814c-.216-.782-2.263-1.378-2.919-1.593-1.667-.545-3.425-.932-5.2-.843-.345.018-2.955.167-1.865 1.206.375.358 1.722.245 2.278.39.1-.456 5.343.915 5.973 1.166.343.137 2.114 1.048 1.733-.326M123.956 133.573l-1.929 3.794c.458.202.936.4 1.435.469.247-.862.495-1.718.784-2.567.324-.95.484-1.032-.29-1.696M100.804 92.762c1.04-1.318 2.1-3.055 2.365-4.73.214-1.356-.73-2.62-2.135-2.753-.717-.068-1.466.046-2.16.211-.316.076-.787.17-1.069.338-.354.211-.403.707-.736.295l-1.33 2.493c.441-.159 1.341-.835 1.823-.765.704.102.849 1.12.858 1.647-.751 1.04-2.033 2.402-2.301 3.659.828-.484 2.579-2.81 3.03-.957.258 1.064-1.07 2.331-1.396 3.362 1.306-.428 2.236-1.767 3.051-2.8M22.915 98.846c0 1.235 1.103.399 1.063-.48-.057-1.292-1.114-.496-1.063.48M13.882 120.429c-.14.248-.469 1.261.201 1.032.592-.202.208-.874-.201-1.032M8.724 105.864c.381-.44.42-.676.203-1.066-.278.259-.229.628-.203 1.066" transform="translate(-110 -34) translate(110 34) translate(.194)"/>
                    <path fill="#FFF" d="M103.797 74.413l.907-.101c-.29.257-.604.086-.907.1m8.998 8.577c-.02 4.173-1.82 8.186-4.688 11.185-1.303 1.363-2.546 2.456-4.146 3.451-.798.496-1.387.94-2.279 1.27-.63.233-.565.11-.726.695-.137.496.003 1.243.007 1.758l-.147.25c1.01.049 1.952-.842 2.813-1.278 1.118-.565 2.111-1.337 3.091-2.116 1.728-1.375 3.48-2.923 4.765-4.728 2.884-4.044 5.504-9.171 4.717-14.3-.848-5.526-5.68-7.653-10.83-6.921-2.32.33-4.392 1.365-6.47 2.417-1.046.53-1.93 1.219-2.889 1.885-.497.346-.951.39-.984.995-.024.456.763 1.486.976 1.899 2.608-2.66 5.418-4.862 9.355-4.998 4.685-.162 7.455 4.281 7.435 8.536M84.454 75.896c.423.011 1.305.282 1.338-.466.054-1.215-3.68.267-4.263.506l.616.797c.66-.522 1.462-.859 2.309-.837M4.879 126.028c.286.292.585-.258.627-.376-.333-.618-.93.068-.627.376M63.804 84.194c.25-.232.499-.207.748-.002l-.748.002m-.1-.944c-.27.144-.84.858-.582 1.173.137.168 1.1-.2 1.459-.2.293.205.968 1.022 1.317 1.036-.124-.946-1.088-2.593-2.194-2.009M7.993 79.982c.347.86 2.062-.313 2.126-.943.131-1.293-2.144.083-2.126.943" transform="translate(-110 -34) translate(110 34) translate(.194)"/>
                    <path fill="#FFF" d="M101.899 96.259c.887-.36 1.72-.808 2.472-1.411 3.358-2.688 5.912-6.424 6.767-10.715.418-2.094.385-4.54-1.065-6.25-1.326-1.562-3.616-2.073-5.573-1.783-2.116.313-4.033 1.214-5.756 2.374-.5.337-.958.705-1.428 1.081-.616.495-.986.508-.831 1.282.114.576.426 1.173.627 1.726.377 1.035.24 1.303 1.294.964.722.012 1.38-.382 2.133-.36 1.184.035 2.122.958 2.81 1.848 1.36 1.76 1.012 3.885.33 5.856-.328.942-.776 1.846-1.337 2.67-.497.73-1.384 1.421-1.73 2.234-.572 1.34.58.77 1.287.484M14.821 89.212c-.703-.268-.763.738-.78 1.007-.021.34-.07 1.297.784 1.035.486-.15.185-1.017.14-1.272.14-.021.079-.685-.144-.77" transform="translate(-110 -34) translate(110 34) translate(.194)"/>
                    <path fill="#FF6161" d="M51.708 131.209c-1.07.413-2.143.765-3.258 1.047-1.95.493-4.121 1.165-6.14 1.216-.581.014-2.177.286-2.596-.074-.798-.686.31-1.258.978-1.503 3.984-1.46 8.213-2.08 12.208-3.578 2.055-.77 4.09-1.63 6.158-2.39 1.783-.653 3.651-1.232 5.374-2.037 2.276-1.062 4.561-2.385 6.532-3.945.394-.311 1.22-.775 1.49-1.227.239-.398.21 0 .16-.483-.036-.347-.46-.817-.634-1.144-.649-1.221-1.236-2.475-1.73-3.767-3.143 1.35-6.133 3.186-9.23 4.628-3.118 1.451-6.634 2.475-9.969 3.292-1.42.348-3.051.457-4.353 1.144-.553.292-1.1.63-1.692.798-.175.336-.347.402-.517.198-.106-.12-.244-.17-.412-.151-.363.061-.732.232-1.071.364-1.715.665-3.358 1.499-4.986 2.349-.772.403-1.563.8-2.302 1.26-.396.246-.75.495-1.075.834-.388.406-.295.74-.924.45-2.875 7.578 7.23 13.957 13.45 15.369.862.195 1.703.45 2.56.66.935.23 1.766.184 2.7.28.676.069 1.03.551 1.618.756.1.018.18.033.227.044.132.032.257.048.377.052.723-.034.683-.793.755-1.601.355-3.996 2.393-7.851 4.55-11.186-.986-.352-1.962-.737-2.934-1.123-.16-.064-.335-.149-.52-.245-.056-.022-.111-.043-.164-.066-.181-.077-.403-.205-.637-.366-.584-.313-1.19-.605-1.68-.632-.662-.037-1.67.529-2.313.777" transform="translate(-110 -34) translate(110 34) translate(.194)"/>
                    <path fill="#000" d="M134.613 128.38c-.5 1.269-1.227 2.522-2.017 3.658-.988 1.422-2.243 2.168-1.028 3.88-.762 1.479-1.514 2.973-2.18 4.462-.159.357-.415 1.023-.693 1.293l-.216.405c-.343-.15-.684-.301-1.026-.452l-3.04-1.338c.56-.59.28-.656.371-1.295.084-.585.168-.898.476-1.496.283-.55.519-1.112.772-1.673.193-.427.642-.9.74-1.344.096-.432-.186-.664.066-1.026.267-.383.959-.635 1.32-.941.792-.672 1.373-1.51 2.06-2.255 1.514-1.644 2.683-3.667 3.874-5.564.637-1.014 1.14-2.111 1.713-3.158.426-.778.958-2.254 1.809-2.643-.619 3.36-1.749 6.311-3 9.486m-10.479 6.901c-.3.845-.557 1.698-.814 2.555-.517-.07-1.013-.266-1.487-.467l2-3.776c.803.661.637.743.301 1.688M97.591 95.86c.325-1.03 1.649-2.298 1.39-3.362-.449-1.853-2.194.474-3.019.957.267-1.257 1.545-2.619 2.294-3.66-.01-.527-.154-1.544-.855-1.646-.48-.07-1.378.606-1.817.765l1.325-2.494c.332.412.38-.083.734-.295.28-.169.75-.262 1.065-.338.691-.165 1.438-.278 2.153-.21 1.4.132 2.341 1.396 2.128 2.752-.265 1.676-1.322 3.413-2.357 4.731-.812 1.034-1.74 2.373-3.04 2.8m-1.787-16.135c-.214-.414-1.004-1.447-.98-1.903.033-.606.49-.651.989-.998.962-.667 1.849-1.356 2.9-1.888 2.084-1.054 4.164-2.093 6.493-2.423 5.168-.733 10.02 1.399 10.87 6.937.79 5.139-1.84 10.277-4.734 14.33-1.29 1.808-3.048 3.36-4.783 4.738-.983.78-1.98 1.554-3.103 2.12-.864.437-1.808 1.33-2.822 1.282l.147-.251c-.005-.516-.145-1.266-.008-1.762.162-.586.096-.463.73-.697.895-.33 1.486-.776 2.286-1.272 1.607-.997 2.854-2.093 4.163-3.459 2.878-3.005 4.684-7.027 4.705-11.209.02-4.264-2.76-8.716-7.463-8.554-3.952.136-6.773 2.342-9.39 5.009m3.117 4.199c-.185.142-.402.059-.607.056l.607-.056m1.762 12.145c.349-.813 1.242-1.504 1.742-2.234.565-.824 1.017-1.729 1.346-2.67.688-1.972 1.037-4.097-.332-5.858-.692-.89-1.636-1.814-2.828-1.848-.759-.022-1.421.371-2.148.36-1.062.339-.924.07-1.303-.965-.202-.553-.516-1.15-.631-1.726-.156-.775.216-.788.837-1.282.473-.377.934-.745 1.438-1.082 1.734-1.16 3.664-2.06 5.794-2.374 1.97-.29 4.276.221 5.61 1.784 1.461 1.709 1.494 4.157 1.073 6.25-.86 4.292-3.432 8.03-6.812 10.718-.759.603-1.596 1.05-2.49 1.41-.71.287-1.871.857-1.296-.483M85.57 75.696c-.032.702-.88.448-1.286.438-.813-.021-1.584.295-2.219.785l-.591-.749c.56-.223 4.148-1.614 4.096-.474m-21.213 8.75c-.365.002-1.34.341-1.48.186-.261-.291.316-.951.59-1.084 1.123-.54 2.1.982 2.226 1.857-.354-.013-1.039-.769-1.336-.958m-3.158-16.131c-.622-.25-5.795-1.615-5.894-1.16-.548-.145-1.877-.033-2.248-.389-1.076-1.034 1.5-1.183 1.84-1.2 1.753-.09 3.487.296 5.132.839.647.213 2.667.807 2.88 1.586.376 1.367-1.371.46-1.71.324m-9.56 8.357c-.638.179-1.655.992-1.834.226-.512-2.193 3.626-2.13 4.508-1.137-.252.71-2.042.734-2.675.911M50.99 91.85c-.491.118-.853-.088-1.356-.084-.424.003-.812.155-1.238.155 1.114-.776 2.228-1.562 3.371-2.294.229-.146 1.448-1.107 1.757-1.036.317.072.53.987.638 1.24-.892.599-2.117 1.766-3.172 2.02m2.987.375l-.127.755-1.054-.466c.293-.39.802-.504 1.214-.746l-.033.457m-2.139 2.212c-.444.68-1.638-.454-1.621-1.044.03-1.174 1.995.472 1.621 1.044m-16.043 19.561c.214.174.584.919.629 1.21.108.704-.33 1.402-.08 2.133.517 1.52 1.855.221 2.592-.441.283.296.402.462.6.795-.398.134-.856.141-.98.57-.164.566.415.671.643.984.405-.021.5.153.284.522l-.134.4c-.206.527-.558.981-.9 1.426-1.394 1.805-3.541 2.876-5.805 2.739-1.055-.132-2.489-.692-2.938-1.767-.303-.724.024-1.765.152-2.487.078-.44.164-.84.383-1.033.219-.192.541.008.855-.367.029.666.409 1.693 1.25 1.316.813-.364.472-1.262-.334-1.187.074-.389.227-.939-.015-1.31-.15-.107-.31-.112-.483-.015l-.367-.668c-.327.405-.418.968-.92 1.23.154-.876.283-1.753.42-2.631.137-.863.317-1.04 1.151-1.416 1.212-.547 2.856-.93 3.997-.003m4.75 5.5c.63.66 1.468 1.106 1.933 1.878l-2.58 1.153c.358-.987.878-1.949.648-3.03m7.199 2.1c.372-.157 2.79-.705 4.2-1.051 3.31-.813 15.168-6.067 18.294-7.414.399 1.049 3.693 5.678 3.128 6.152-1.86 1.562-5.195 3.507-7.35 4.626-1.744.905-3.59 1.654-5.454 2.266-2.116.695-3.569 1.44-5.678 2.15-1.722.58-.307 2.184.833 2.97.277.148.549.3.801.432 1.196.464 2.937.718 4.104 1.138-2.15 3.337-3.955 7.388-4.317 11.386-.077.856-.668 1.646-1.638 1.608-.12.005-.26-.007-.427-.044-.062-.014-.12-.033-.177-.052-1.229-.217-6.148-.877-7.005-1.073-6.191-1.41-17.305-8.794-14.443-16.365.656.302 2.152-.973 2.762-1.388.708-.482 2.157-2.208 2.916-2.607 1.688-.887 9.206-2.63 9.45-2.734m23.982-10.22c.208-.496 1.079-1.063 1.447-1.488.589-.68 4.657-5.99 5.371-5.516-.37.94-2.29 3.92-1.073 4.787 1.263.899 2.273-2.811 3.374-2.19-.443.964-1.87 1.988-1.862 3.027.015 2.038 1.301.166 1.884.137-.969 1.497-2.154 2.71-3.477 3.867-1.152 1.008-2.483 2.133-3.888 2.768-.156-.745-.465-1.44-.821-2.11-.281-.53-.912-1.21-1.037-1.778-.06-.272-.042-1.209.082-1.504m-9.949 18.807c-.212.411-.341 1.026-.746 1.115-.494.108-1.19-.323-1.638-.487-1.007-.37-1.992-.733-2.955-1.206.477-.453 1.698-.708 2.317-.993.657-.303 1.29-.559 1.962-.812.67-.253 3.38-1.969 3.914-1.58-1.15 1.242-2.077 2.457-2.854 3.963m19.787 24.842c.107 0 .79-.082.864-.02.132.11.229 1.228.26 1.394-1.267.252-2.657-.239-3.909-.413-.71-.1-1.424-.18-2.127-.322-1.008-.205-.943-.21-.943-1.165.892 0 1.805.367 2.702.477 1.066.13 2.088.179 3.153.049m15.69 10.933c-.541 1.067-1.835 1.045-2.831 1.281-1.264.3-2.573.049-3.853-.094-2.362-.264-4.875-.903-6.992-2.058-1.192-.65-2.039-1.839-3.27-2.412-.462-.215-1.182-.45-1.67-.176-.359.202-.348.71-.675.854-.187.083-1.298-.44-1.602-.49-.491-.08-1.014-.065-1.463-.332-.43-.256-.297.06-.397-.43-.06-.298.285-1.13.346-1.395.17-.735.324-1.477.385-2.23-.023-.5.005-.909.097-1.4 1.257.625 2.485.592 3.86.734 1.25.13 2.977.634 4.011-.302 1.902 5.512 9.244 7.129 14.054 8.45M38.84 86.769c-.058-.322.397-1.9 1.03-1.429.628.467-.568 1.39-1.03 1.429m-8.506-16.96c-.083.614-1.676.607-2.146.684-1.94.32-3.89.67-5.785 1.201-.442.124-1.904.867-2.175.342-.41-.796 1.538-1.345 2-1.5 1.86-.62 3.912-1.038 5.876-1.096.555 0 2.33-.382 2.23.368m-3.34 11.488c-.154.58-1.567.884-2.087 1.14-.767.377-1.815 1.388-2.611 1.454.44-.982 1.288-1.484 2.229-1.924.205-.096 2.603-1.175 2.47-.67M14.628 91.573c-.73.261-.688-.691-.67-1.03.015-.267.065-1.268.666-1.002.19.084.243.745.123.766.038.254.296 1.118-.12 1.266m-4.475-12.446c-.064.646-1.773 1.846-2.119.966-.018-.88 2.25-2.289 2.119-.966m128.63 37.728c-.146-.11-.425-.259-.694-.323l-.442.002c-.018.007-.035.014-.05.023-.496.284-.21.361-.119.825-.057-.003-.114 0-.17.004.004.164-.113.185-.353.062-.908.257-1.694 1.227-2.17 1.994-.567.915-1.116 1.838-1.639 2.807-1.003 1.862-2.172 3.584-3.584 5.138-.583.642-1.152 1.398-1.698 2.144-.654.896-1.573 1.572-2.232 2.445-.315.419-.253.718-.655.665-.225-.03-.796-.83-.993-.989-.436-.352-.552-.432-.917-.838-.356-.398-.634-.671-1.082-.985-1.882-1.32-3.931-2.698-5.959-3.798-2.204-1.196-4.245-2.7-6.534-3.706-2.205-.97-4.278-1.516-6.597-2.164-1.144-.319-2.247-.603-3.348-.742-.1.022-.2.011-.3-.035-.989-.107-2.197-.174-3.081-.557 1.136-1.997 2.063-4.204 2.752-6.393.364-1.157.667-2.312.958-3.497.167-.683.235-1.385.35-2.078.1-.606.072-1.557.307-2.109.29-.68.138-.428.916-.617.273-.066.542-.163.804-.26.581-.215 1.186-.468 1.739-.747 1.109-.56 2.176-1.347 3.187-2.065 2.04-1.448 3.608-3.323 5.123-5.264 3.38-4.328 5.873-10.169 5.148-15.758-.658-5.073-4.228-9.754-9.655-9.929-5.547-.178-9.886 2.511-13.777 6.198-.81-1.516-1.517-3.285-2.874-4.423-1.25-1.047-3.405-.879-4.89-.632-1.952.325-3.941.908-5.882 1.339-2.04.452-3.824 1.446-5.689 2.359-.735-1.812-1.504-3.647-2.894-5.048-.942-.95-1.95-1.875-3.012-2.69-2.507-1.921-5.926-2.861-8.91-3.671-3.283-.891-18.672-2.998-16.336 3.825l-1.005-.073c-.168.05-.336.065-.504-.033h.017c-2.474-.17-4.992-.301-7.503-.236-1.121.029-2.245.002-3.367.033-1.348.037-2.528.271-3.86.23-1.418-.044-3.054.415-4.452.715-1.33.285-2.589.74-3.87 1.215-1.619.6-3.33 1.242-4.674 2.363-1.062.885-2.047 2.667-.894 3.915-2.129.862-4.094 1.88-6.027 3.087-1.387.868-3.405 3.695-1.39 5.085 1.064.734 2.005.274 3.1.083.48-.084.811.028 1.312-.154.47-.172.94-.38 1.408-.564 2.219-.878 4.551-2.148 6.964-2.32-1.67 1.541-3.436 2.639-4.756 4.555-1.215 1.765-2.26 4.099-2.306 6.259-.02.978.015 1.941.65 2.741.684.86 1.816.625 2.78.365 2.059-.554 3.39-2.044 4.779-3.559 1.218-1.328 2.267-2.77 3.778-3.791 1.75-1.183 3.759-2.06 5.783-2.638.85-.243 1.728-.434 2.57-.605.565-.114 1.09-.088 1.66-.205 1.191-.244 2.363-.52 3.588-.607.55-.039 2.004-.274 2.446.055-1.77 1.109-3.742 2.026-3.123 4.499.551 2.207 2.388 1.875 4.118 1.066 1.868-.874 3.513-1.872 5.542-2.422 2.201-.596 4.362-.248 6.212 1.035-4.484 2.71-8.656 5.95-12.627 9.353-2.073 1.777-4.176 3.752-5.682 6.048-.775 1.182-1.37 2.372-1.284 3.81.037.61 1.135 2.524.652 2.833-.385-.41-.887-.747-1.416-.942-.873-.324-.577.048-1.22.299-.083.308-.263.4-.54.273-.217-.055-.435-.106-.653-.152-.683.23-.414.658-.595 1.207.162.388.057.572-.316.55-.155.039-.289.115-.399.23-.238.284-.202.796-.161 1.13.128 1.056.607 1.711 1.243 2.454.337-.001.462.16.375.484-.008.25-.083.48-.224.69-.187.623-.383 1.247-.547 1.876-.36 1.378-.65 2.96-.496 4.389.294 2.73 2.507 3.784 4.923 4.112-4.104 2.693-.605 10.386 1.907 13.162 1.708 1.889 3.648 3.487 5.915 4.646 1.977 1.012 3.827 1.978 6.003 2.455 1.237.27 2.46.714 3.719.805 1.027.074 1.296.227 2.187.845.82.568 1.558 1.184 2.64.862.444-.133 1.026-.853 1.431-.897.275-.03 1.15.436 1.455.505 1.078.245 2.2.382 3.301.266 1.017-.107 1.799-.689 2.742-.95 1.982-.552 4.176-1.165 5.971-2.208 1.633-.948 2.908-2.737 4.213-4.069 1.706-1.74 3.009-3.445 4.123-5.632.815.726-.853 3.25-1.351 3.958-.963 1.367-1.437 2.542-1.935 4.122-.514 1.627-1.044 3.133-1.313 4.822-.118.742-.29 1.462-.364 2.213-.041.42-.025.85-.126 1.264-.046.188-.308.429-.302.611.016.6.576.93.694 1.485.075.357.006 1.01-.068 1.362-.304 1.442-1.02 2.884-1.447 4.305-.378 1.261-.69 2.667.19 3.803.812 1.05 2.054 1.277 3.276 1.5.573.104 1.578.549 2.16.313.473-.191.36-.517.897-.517 1.05 0 2.233 1.56 3.036 2.136 2.247 1.61 4.682 2.31 7.462 2.334.62.005 1.32-.2 1.92-.094.54.095.692.37 1.354.277 1.115-.156 2.566-.542 3.58-1.041 1.08-.532 1.771-1.438 1.976-2.633.245-1.425-.938-2.014-2.029-2.512-2.468-1.126-5.037-2.05-7.433-3.285-1.309-.675-2.721-1.468-3.836-2.431-.419-.362-1.306-.978-1.567-1.421-.362-.613-.28-.538.058-1.42 1.239.866 1.768-1.893 2.094-2.696.606-1.494 1.487-2.913 2.176-4.353.813-1.698 1.318-3.568 1.907-5.354.674-2.045 1.394-4.065 1.877-6.164.95-4.138 2.393-8.147 1.646-12.473-.302-1.748-.884-4.098-2.122-5.431-1.431-1.542-3.214-2.45-5.16-3.131-.776-.088-1.526-.311-2.31-.297-.746.014-1.447.287-2.177.349-.697.059-1.392.048-2.083.255-.737.22-1.315.664-2.096.812 1.745-1.992 4.116-3.963 4.784-6.662.129-.521.196-1.109-.145-1.592-.093-.133-.58-.42-.603-.47-.068-.148.156-.456.131-.622-.093-.62-.17-1.609-.915-1.843-.622-.195-.9.484-1.43.364.29-.867 1.498-4.297-.757-3.617-1.187.358-2.677 2.026-3.518 2.923-1.13 1.206-2.098 2.5-3.148 3.772-.617.748-1.171 1.66-1.84 2.355-.555.577-1.268.785-1.981 1.098-2.443 1.073-4.843 2.335-7.26 3.395-2.699 1.183-5.667 1.884-8.496 2.705-2.211.642-4.41 1.228-6.547 1.749-.358.087-.697.33-1.07.392-.859.143-.251.172-.767-.18-.553-.377-1.087-1.37-1.486-1.898-.966-1.28-1.876-2.588-2.704-3.963-.726-1.207-1.228-2.782-2.151-3.81-.332-.369-.755-.692-.964-1.169-.466-1.064.067-.958 1.05-1.062.392-.04 1.486-.024 1.667-.47.314-.775-1.264-.401-1.618-.415-.62-.024-1.46-.005-2.036-.234-.576-.23-.648-.076-.683-.79-.018-.365.146-.756.244-1.1.769-2.693 2.95-5.055 5.04-6.859 2.33-2.011 4.69-4.11 7.146-5.967-.42.962.03 1.883-.15 2.866-.06.333-.106.726-.22 1.04-.067.164-.159.314-.274.452-.26.225-.263.472-.01.738-.363 1.997-2.252 3.11-3.845 4.077-.777.47-1.692.678-2.465 1.091-.478.255-1.469 1.465-1.725.528-.325-1.192 3.838-4.243 2.994-5.062-1.224 1.285-5.69 4.051-4.456 6.154.608 1.035 2.21.337 3.129-.012 1.467-.556 2.947-.959 4.44-1.448 2.689-.88 5.174-2.074 7.765-3.19 2.356-1.013 4.818-2.113 6.99-3.48 4.18-2.632 8.531-5.082 12.578-7.902 2.238-1.56 4.368-3.304 6.578-4.91 2.057-1.495 4.15-2.99 5.82-4.922.757-.876 1.906-2.005 2.158-3.178.31-1.447-1.102-1.527-2.178-1.294-1.234.268-2.465.797-3.61 1.302-.924.407-2.348.818-3.278.286 3.003-1.12 6.027-2.087 9.18-2.75 1.16-.244 3.124-.337 3.712.998.635 1.44-.85 3.012-1.335 4.28.757-.801 1.574-1.548 2.48-2.179 1.008 1.516 1.93 3.089 2.745 4.716.385.77.747 1.553 1.08 2.347.154.364.424.802.481 1.198.13.9.138.246-.154.828-.636 1.266-5.723 7.162-1.751 7.162-.136 1.627-.209 3.709 1.989 3.326-.082.673.09 1.799.732 2.193.509.313 1.307.021 1.872-.032-.148 1.043-.065 2.11-.111 3.129-.06 1.336-.32 2.768-.543 4.089-.429 2.533-1.022 5.203-1.992 7.568-.633 1.546-1.529 3.152-2.384 4.638-.345.6-.934 1.325-.94 1.988-.007.99.872 2.301 1.068 3.314.474 2.437.583 5.136.247 7.6-.05.376-.648 2.22-.453 2.548.11.188 1.022.239 1.198.272.851.16 1.664.353 2.482.553 4.078.997 8.221 1.63 12.314 2.748 2.2.6 4.341 1.337 6.52 2.087.773.266 1.546.536 2.32.799.464.158 1.201.598 1.694.528.643-.093.538-.339 1.146-.19.574.14.97.598 1.6.682-.513 1.196 2.01 2.113 2.835 2.502 1.366.643 2.783 1.47 4.09.496 1.158-.864 1.919-2.212 2.495-3.517.788-1.785 1.354-3.155.175-4.837 1.756-.728 2.632-2.837 3.338-4.432.886-2.003 1.698-3.854 2.346-5.952.539-1.745.926-3.567 1.031-5.413.042-.716.013-1.67-.639-2.161" transform="translate(-110 -34) translate(110 34) translate(.194)"/>
                    <path fill="#000" d="M35.369 126.796c-.609.415-2.103 1.693-2.758 1.39-2.857 7.584 8.239 14.98 14.42 16.392.855.195 5.766.856 6.992 1.073-.586-.205-.94-.687-1.617-.756-.932-.096-1.762-.05-2.695-.279-.857-.21-1.697-.466-2.557-.661-6.213-1.41-16.306-7.79-13.434-15.366.628.289.535-.045.923-.451.324-.339.678-.587 1.074-.834.737-.46 1.528-.857 2.299-1.26 1.626-.85 3.267-1.683 4.98-2.348.338-.132.707-.303 1.069-.365.168-.018.306.032.412.152.17.204.341.138.516-.198.592-.168 1.138-.506 1.69-.797 1.3-.687 2.93-.797 4.348-1.145 3.33-.816 6.843-1.84 9.956-3.292 3.093-1.441 6.08-3.278 9.22-4.627.492 1.292 1.079 2.546 1.727 3.766.174.328.598.797.633 1.144.05.483.079.086-.159.484-.27.452-1.095.915-1.49 1.227-1.967 1.559-4.25 2.882-6.523 3.944-1.72.804-3.586 1.383-5.367 2.037-2.066.76-4.098 1.62-6.151 2.39-3.99 1.496-8.214 2.117-12.193 3.576-.667.245-1.774.817-.976 1.504.418.36 2.012.088 2.593.073 2.016-.05 4.183-.722 6.131-1.215 1.114-.282 2.186-.634 3.255-1.047.642-.248 1.649-.814 2.31-.777.49.027 1.095.319 1.678.632-1.138-.789-2.55-2.395-.832-2.976 2.106-.711 3.556-1.457 5.668-2.153 1.861-.613 3.704-1.363 5.445-2.27 2.151-1.12 5.48-3.068 7.338-4.633.564-.475-2.725-5.111-3.123-6.161-3.12 1.349-14.96 6.61-18.263 7.425-1.407.347-3.822.896-4.193 1.053-.244.103-7.75 1.85-9.435 2.738-.758.4-2.204 2.128-2.911 2.61" transform="translate(-110 -34) translate(110 34) translate(.194)"/>
                    <path fill="#000" d="M59.912 132.815c-2.188 3.347-4.255 7.217-4.615 11.227-.073.811-.033 1.573-.767 1.608.984.039 1.583-.756 1.662-1.617.366-4.02 2.197-8.092 4.378-11.447-1.184-.423-2.95-.678-4.162-1.145.188.097.366.183.527.246.987.388 1.977.774 2.977 1.128M3.624 93.429c-.367.038-.385-.958-.38-1.225.015-.651.135-.928.559-1.21 0 .342.164 2.4-.18 2.435M6.8 85.975c-.326-.067-.78.5-1.068.621-.478.203-.971.192-1.407.513-1.764 1.3-2.514 3.421-2.712 5.507-.118 1.19.543 2.435 1.418 3.216.694.619 1.936 1.298 2.51.252.537-.982.315-2.811.3-3.896-.018-1.428-.06-2.59.57-3.914.202-.428 1.59-2.052.389-2.299M23.308 98.958c-.044-.93.846-1.69.895-.457.033.837-.895 1.634-.895.457m2.128-6.297c-.804.508-1.5 1.315-1.987 2.13-.929 1.554-1.337 3.985-.198 5.53 1.561 2.12 3.012.177 3.001-1.673-.006-1.103-.153-2.187-.005-3.283.196-1.445.98-1.973 1.995-2.913-.501-.925-2.202-.173-2.806.21M13.986 121.625c-.558.258-.285-.88-.168-1.159.341.178.66.932.168 1.16m2.025-.849c-.69-1.836-2.689-2.944-3.56-4.724-.234-.477-.329-1.85-.903-2.008-.73-.2-.766 2.481-.68 2.909.044 1.716.89 4.124 2.351 5.107 1.235.83 3.562.767 2.792-1.284M9.026 105.686c-.022-.432-.065-.797.173-1.052.186.385.153.617-.173 1.052m1.265-5.861c-.192.003-1.176 1.253-1.28 1.392-.513.69-1.012 1.6-1.244 2.445-.291 1.063-.206 4.158 1.495 3.97 1.826.038 1.275-2.688 1.203-3.836-.068-1.074.032-1.883.283-2.85.08-.308.283-1.133-.457-1.121M83.562 82.404c-1.09.913-2.267 1.752-3.408 2.61-1.286.969-2.672 1.606-4.067 2.395-.79.447-1.501 1.007-2.253 1.511-.489.328-1.293.649-1.652 1.11-.537.69-.114.651.533.36.733-.328 1.406-.729 2.066-1.176 1.296-.879 2.654-1.643 3.953-2.508 2.655-1.766 4.972-3.952 7.413-5.972-.57-.518-2.118 1.279-2.585 1.67M80.003 95.2c.344.103 1.698-1.167 1.947-1.357.705-.54 1.42-1.082 2.067-1.69.615-.577 3.312-3.123 2.234-4.052-.592.415-1.026 1.328-1.544 1.867-.638.664-1.353 1.26-2.014 1.905-.732.715-1.497 1.39-2.246 2.086-.232.215-1.122 1.04-.444 1.241M5.405 125.67c-.037.127-.293.716-.538.403-.26-.33.252-1.065.538-.403m-.255-1.99c-.913-.831-1.267-.29-1.42.683.112.863.412 1.998 1.091 2.62.663.606 1.941.936 2.098-.225.12-.885-1.142-2.508-1.769-3.079M3.683 139.701c-1.44-.456-1.053.944-.642 1.813.487 1.033 1.467 1.915 2.615 2.002 2.588.14-1.033-3.517-1.973-3.815M17.908 135.6c-.281-.31-1.097-1.883-1.638-1.1-.387.56.382 1.923.713 2.311.531.624 1.386 1.178 2.25.987.56-.778-.883-1.71-1.325-2.197M18.896 112.613c-.785-.006-.637 1.363-.46 1.82.278.716.92 1.078 1.612 1.378 1.837-.137-.243-3.19-1.152-3.198M16.681 105.03c.432-.348.016-2.048-.07-2.55-.125-.737-.34-1.251-1.247-1.234-.322.866-.887 1.772-.478 2.694.198.447 1.179 1.588 1.795 1.09M30.699 150.747c-.497-.058-2.004-.863-2.1-.246-.046.29 1.047 1.156 1.22 1.289.41.316 1.51 1.019 1.894.296.366-.692-.593-1.138-1.014-1.339" transform="translate(-110 -34) translate(110 34) translate(.194)"/>
                    <g transform="translate(-110 -34) translate(110 34) translate(.194) translate(.178 105.153)">
                        <mask id="j41faxnqdb" fill="#fff">
                            <use xlink:href="#rge55g7nla"/>
                        </mask>
                        <path fill="#000" d="M.084.673c-.174.623-.097 1.19.408 1.643C2.147 3.803 1.793 1.05 1.479.248.702-.052.336-.23.084.673" mask="url(#j41faxnqdb)"/>
                    </g>
                    <path fill="#000" d="M88.851 92.368c-.418-.094-1.692 1.571-1.996 1.879-.464.47-1.333.94-.98 1.67.422-.326 3.836-3.355 2.976-3.549M16.688 148.986c-.545-.402-.743-1.323-1.59-1.19-.04.646 2.041 2.839 2.465 1.879.162-.366-.641-.517-.875-.69M22.203 126.141c.04.44 1.008 2.358 1.694 1.553.46-.539-1.14-1.785-1.694-1.553M32.657 143.29c-.69.765 1.17 1.336 1.611 1.293.158-.486-1.128-1.831-1.611-1.294M11.985 140.171c-.437.646.952.986 1.337.82 0-.51-.921-1.435-1.337-.82M25.4 143.88c.145.63.362.765 1.066.685-.097-.46-.503-.731-1.066-.685M137.282 116.876l-.334.27c.028.033.053.06.078.086.09-.053.183-.088.277-.1 0-.07-.006-.153-.02-.256" transform="translate(-110 -34) translate(110 34) translate(.194)"/>
                    <path fill="#000" d="M137.303 117.16c-.12.008-.239.03-.355.063.241.124.36.102.355-.062M99.735 119.44c.089-.021.178-.07.267-.143l-.71-.01c.054.053.108.09.162.117l.244.03.037.006M99.647 119.375l-.047-.005-.308-.03c.118.047.236.057.355.035M106.752 70.013l.71.001c-.236-.064-.473-.095-.71 0M42.807 67.124l-.71.001.586.034c.042-.01.083-.022.124-.035" transform="translate(-110 -34) translate(110 34) translate(.194)"/>
                    <path fill="#000" d="M42.452 67.139l-.343-.034h-.012c.118.099.237.084.355.034M138.245 116.229h.124c-.237-.161-.474-.185-.71.003h.172c.116-.05.263-.041.414-.003M137.658 116.538l.356-.002c-.13-.039-.256-.047-.356.002M104.62 74.53l-1.065.101c.356-.015.724.157 1.065-.1M98.936 83.797l-.71.056c.24.003.494.086.71-.056M63.767 84.27l.71-.002c-.237-.19-.474-.213-.71.002M33.667 120.784c-.316 0-.585.407-.913.447-.408.049-1.114-.32-1.465-.442-.932 1.421 1.55 3.007 2.66 1.544.41-.54.568-1.548-.282-1.549M33.294 116.192c-.216.701-.025 2.64 1.067 2.447.928-.164 1.477-2.549.374-2.828-.136.398-.068 1.35-.518 1.557-.709.323-.36-.848-.923-1.176" transform="translate(-110 -34) translate(110 34) translate(.194)"/>
                    <path fill="#FFF" d="M85.666 95.89c-.35-.718.514-1.182.976-1.645.301-.302 1.57-1.942 1.985-1.85.856.191-2.541 3.175-2.961 3.495m-1.834-3.985c-.655.612-1.376 1.158-2.088 1.7-.251.191-1.619 1.47-1.966 1.366-.685-.203.215-1.032.448-1.249.757-.7 1.529-1.38 2.269-2.099.666-.648 1.389-1.248 2.033-1.917.523-.542.962-1.46 1.56-1.878 1.088.935-1.635 3.496-2.256 4.077m-5.142-5.409c-1.288.873-2.634 1.645-3.919 2.531-.654.452-1.322.856-2.048 1.188-.64.293-1.06.332-.528-.364.355-.465 1.153-.79 1.637-1.12.746-.51 1.45-1.074 2.234-1.525 1.383-.797 2.757-1.44 4.031-2.417 1.132-.867 2.299-1.713 3.378-2.634.463-.395 1.998-2.209 2.564-1.686-2.42 2.038-4.718 4.245-7.35 6.027m17.606 25.895c.968-2.374 1.561-5.054 1.988-7.597.223-1.326.482-2.763.543-4.105.046-1.022-.037-2.094.11-3.14-.563.053-1.36.346-1.868.032-.64-.396-.812-1.526-.73-2.202-2.195.385-2.122-1.705-1.986-3.339-3.965 0 1.113-5.917 1.747-7.188.292-.584.283.072.155-.831-.057-.398-.327-.838-.48-1.203-.334-.797-.694-1.582-1.079-2.356-.813-1.633-1.734-3.212-2.739-4.734-.905.634-1.72 1.383-2.476 2.187.485-1.273 1.966-2.85 1.332-4.296-.587-1.34-2.548-1.247-3.706-1.002-3.147.667-6.165 1.637-9.163 2.76.929.535 2.35.122 3.273-.287 1.143-.506 2.371-1.037 3.603-1.306 1.074-.234 2.484-.154 2.174 1.299-.252 1.177-1.398 2.31-2.155 3.19-1.666 1.94-3.756 3.44-5.808 4.94-2.207 1.612-4.333 3.364-6.567 4.93-4.04 2.83-8.382 5.289-12.555 7.93-2.169 1.373-4.626 2.478-6.978 3.495-2.587 1.12-5.067 2.317-7.751 3.201-1.49.491-2.968.895-4.433 1.454-.918.35-2.517 1.051-3.123.012-1.232-2.111 3.226-4.887 4.448-6.178.843.822-3.313 3.885-2.988 5.082.256.94 1.244-.274 1.721-.53.772-.415 1.686-.623 2.46-1.096 1.591-.97 3.476-2.087 3.84-4.092-.253-.267-.25-.514.009-.74.115-.139.207-.29.274-.455.113-.315.159-.71.22-1.043.178-.987-.271-1.912.149-2.878-2.45 1.865-4.807 3.972-7.133 5.99-2.087 1.811-4.264 4.183-5.031 6.885-.098.346-.261.739-.244 1.104.035.717.107.563.682.793.576.23 1.414.21 2.033.236.352.013 1.928-.362 1.615.415-.18.449-1.273.432-1.664.473-.982.104-1.514-.003-1.049 1.066.209.479.63.803.962 1.174.922 1.03 1.423 2.612 2.148 3.824.826 1.38 1.734 2.692 2.7 3.977.398.53.93 1.527 1.482 1.906.515.353-.091.324.765.18.373-.062.712-.306 1.069-.393 2.134-.522 4.328-1.111 6.536-1.756 2.823-.824 5.786-1.527 8.48-2.714 2.413-1.065 4.809-2.331 7.247-3.409.712-.314 1.424-.523 1.977-1.101.668-.699 1.221-1.613 1.838-2.364 1.048-1.277 2.013-2.576 3.141-3.787.84-.9 2.328-2.574 3.513-2.934 2.25-.683 1.046 2.76.755 3.63.529.121.807-.56 1.428-.365.744.235.82 1.228.913 1.85.025.166-.198.476-.13.624.023.05.508.339.602.472.34.485.272 1.075.144 1.598-.666 2.71-3.034 4.688-4.775 6.687.779-.148 1.356-.594 2.091-.815.69-.207 1.384-.196 2.08-.256.729-.062 1.428-.336 2.173-.35.782-.014 1.531.21 2.307.298 1.941.683 3.721 1.595 5.15 3.143.302.327.563.714.792 1.139l.632-.595c.064-.635.605-1.315.93-1.884.854-1.492 1.748-3.103 2.38-4.655" transform="translate(-110 -34) translate(110 34) translate(.194)"/>
                </g>
            </g>
        </g>
    </g>
</svg>
