<svg xmlns="http://www.w3.org/2000/svg" xmlns:xlink="http://www.w3.org/1999/xlink" width="170" height="34" viewBox="0 0 170 34">
    <defs>
        <path id="tasv3z02ra" d="M0.642 0.441L19.211 0.441 19.211 27.502 0.642 27.502z"/>
    </defs>
    <g fill="none" fill-rule="evenodd">
        <g>
            <g>
                <path fill="#BC3939" d="M16.592 5.885L10.738 14.665 8.016 5.885 3.232 5.885 0 24.207 4.581 24.207 6.412 13.876 8.144 20.033 11.477 20.033 15.395 13.876 13.563 24.207 18.168 24.207 21.401 5.885z" transform="translate(-95 -217) translate(95 217)"/>
                <g>
                    <path fill="#BC3939" d="M5.519 27.893c1.102 0 1.823-1 2.163-3.002l.254-1.477c-2.358 1.104-3.537 2.214-3.537 3.335 0 .338.097.614.293.826.195.211.47.318.827.318zm-.128-9.237c-.05.305-.075.611-.075.917 0 .813.458 1.22 1.373 1.22.746 0 1.366-.262 1.858-.788l1.425-8.118h4.326l-2.24 12.647c-.373 2.154-1.225 3.86-2.557 5.116-1.332 1.254-2.854 1.882-4.568 1.882-1.713 0-2.947-.314-3.701-.942-.756-.627-1.134-1.45-1.134-2.468 0-1.442.891-2.722 2.672-3.843-.967-.237-1.577-.72-1.832-1.45-.153-.407-.229-.865-.229-1.374 0-.508.041-1.025.126-1.552l1.426-8.016h4.327l-1.197 6.769zM36.895 5.805L33.688 24.127 29.083 24.127 30.253 17.511 25.291 17.511 24.145 24.127 19.54 24.127 22.771 5.805 27.352 5.805 25.978 13.542 30.939 13.542 32.315 5.805zM44.884 17.078c.034-.17.05-.385.05-.648 0-.264-.11-.556-.33-.88-.22-.321-.606-.482-1.158-.482-.55 0-1.013.183-1.386.547-.373.365-.612.853-.713 1.463l-.33 1.909c-.035.17-.051.386-.051.65 0 .263.11.546.33.85.22.306.606.459 1.158.459.552 0 1.014-.19 1.387-.572.374-.383.611-.843.712-1.387l.33-1.909zm-.687-5.547c1.833 0 3.215.4 4.147 1.196.73.628 1.096 1.5 1.096 2.621 0 .373-.043.78-.128 1.222l-.535 2.977c-.322 1.798-1.072 3.071-2.252 3.817-1.18.746-2.753 1.119-4.719 1.119-1.97 0-3.41-.373-4.327-1.119-.678-.56-1.018-1.4-1.018-2.52 0-.39.043-.822.127-1.297l.535-2.977c.593-3.36 2.951-5.039 7.074-5.039zM55.622 24.483c-1.967 0-3.384-.441-4.25-1.323-.644-.644-.967-1.51-.967-2.595 0-.356.033-.738.102-1.146l1.731-9.848 4.656-1.934-.737 4.25h7.023l-.637 3.588H55.52l-.51 2.876c-.067.322-.102.61-.102.865 0 1.068.511 1.603 1.528 1.603.542 0 .996-.23 1.362-.687.364-.458.614-1.07.75-1.832h4.224c-.713 4.123-3.096 6.183-7.15 6.183M69.567 20.819c.475 0 .916-.152 1.323-.458.407-.306.661-.764.763-1.374l.331-1.91c.035-.168.051-.38.051-.634 0-.255-.11-.527-.33-.816-.221-.288-.604-.432-1.145-.432-.883 0-1.46.213-1.73.636l-.765 4.275c.238.476.739.713 1.502.713m2.646-9.262c1.73 0 2.926.457 3.588 1.373.476.628.713 1.426.713 2.393 0 .39-.043.806-.126 1.246l-.51 2.978c-.288 1.612-.91 2.837-1.858 3.677-.95.84-2.139 1.26-3.563 1.26-1.424 0-2.417-.382-2.976-1.145L66.107 31.2H61.78l3.411-19.314h3.918l-.127.687c.796-.677 1.874-1.017 3.231-1.017M82.01 20.208c0 .442.224.661.674.661.45 0 .828-.083 1.132-.253l-.126 2.876c-.814.66-1.732.991-2.749.991-1.544 0-2.546-.356-3.004-1.068-.288-.46-.432-.958-.432-1.501 0-.543.033-1.019.102-1.426l2.775-15.674h4.325l-2.672 15.089c-.016.102-.026.204-.026.305M89.033 18.987c-.033.152-.051.366-.051.636 0 .271.127.539.381.802.255.263.683.393 1.286.393.602 0 1.124-.236 1.564-.711l.764-4.275c-.187-.425-.628-.637-1.323-.637-1.307 0-2.07.627-2.291 1.883l-.33 1.909zm7.532 1.221c0 .442.225.662.674.662.45 0 .828-.085 1.133-.255l-.127 2.877c-.814.66-1.731.99-2.748.99-1.866 0-2.901-.676-3.106-2.035-.848 1.359-2.094 2.036-3.74 2.036-2.783 0-4.173-1.196-4.173-3.588 0-.407.043-.855.128-1.348l.533-2.977c.271-1.528.894-2.745 1.87-3.653.976-.906 2.248-1.361 3.818-1.361 1.569 0 2.632.366 3.195 1.094l.126-.764h3.869l-1.426 8.016c-.017.103-.026.205-.026.306zM104.327 24.483c-3.528 0-5.293-1.221-5.293-3.664 0-.339.033-.704.102-1.094l.534-3.155c.272-1.629 1.013-2.876 2.227-3.741 1.212-.865 2.751-1.307 4.619-1.323 3.612 0 5.42 1.256 5.42 3.766 0 .543-.064 1.03-.192 1.463-.127.433-.257.725-.394.878l-.203.254h-4.327c.425-.373.636-.814.636-1.323 0-.916-.458-1.374-1.374-1.374-.543 0-1.009.16-1.398.483-.39.322-.646.814-.765 1.476l-.33 1.858c-.033.17-.051.33-.051.484 0 .9.56 1.348 1.68 1.348.372 0 .708-.118 1.006-.357.296-.237.47-.499.52-.788l4.224.05c-.559 3.173-2.773 4.76-6.64 4.76M120.612 16.85c.068-.289.101-.556.101-.801 0-.247-.11-.498-.33-.752-.221-.255-.572-.382-1.056-.382-.484 0-.924.162-1.323.484-.399.322-.676.806-.828 1.45h3.436zm-3.053 7.633c-3.53 0-5.294-1.22-5.294-3.663 0-.34.035-.705.102-1.095l.534-3.155c.29-1.63 1.04-2.88 2.253-3.754 1.212-.873 2.82-1.31 4.822-1.31 3.41 0 5.116 1.29 5.116 3.867 0 .374-.036.781-.104 1.221l-.305 1.807h-7.76l-.103.586c-.033.204-.051.39-.051.56 0 .933.552 1.399 1.655 1.399.407 0 .754-.126 1.043-.381.288-.255.458-.552.509-.89l4.224.05c-.56 3.173-2.773 4.758-6.641 4.758z" transform="translate(-95 -217) translate(95 217) translate(20.565 .08)"/>
                    <g transform="translate(-95 -217) translate(95 217) translate(20.565 .08) translate(128.871)">
                        <mask id="labtced24b" fill="#fff">
                            <use xlink:href="#tasv3z02ra"/>
                        </mask>
                        <path fill="#BC3939" d="M15.7 7.468c-.185-.304-.548-.45-.89-.354-.343.096-.58.409-.58.764 0 .968-.788 1.755-1.757 1.755-.968 0-1.755-.787-1.755-1.755V1.234c0-.32-.192-.61-.488-.733-.297-.122-.637-.055-.865.171-.089.09-2.203 2.217-4.344 5.43-1.263 1.894-2.27 3.773-2.997 5.585-.917 2.295-1.382 4.492-1.382 6.53 0 5.12 4.165 9.285 9.284 9.285 5.12 0 9.286-4.165 9.286-9.284 0-3.277-1.182-6.893-3.512-10.75" mask="url(#labtced24b)"/>
                    </g>
                </g>
            </g>
        </g>
    </g>
</svg>
