<svg xmlns="http://www.w3.org/2000/svg" xmlns:xlink="http://www.w3.org/1999/xlink" width="120" height="24" viewBox="0 0 120 24">
    <defs>
        <path id="hrhrkg3i7a" d="M0.453 0.312L13.561 0.312 13.561 19.413 0.453 19.413z"/>
    </defs>
    <g fill="none" fill-rule="evenodd">
        <g>
            <g>
                <path fill="#BC3939" d="M11.712 4.154L7.58 10.352 5.659 4.154 2.281 4.154 0 17.087 3.234 17.087 4.526 9.795 5.749 14.141 8.101 14.141 10.867 9.795 9.574 17.087 12.825 17.087 15.107 4.154z" transform="translate(-24 -16) translate(24 16)"/>
                <g>
                    <path fill="#BC3939" d="M3.896 19.69c.778 0 1.287-.707 1.527-2.12l.179-1.042c-1.665.779-2.497 1.563-2.497 2.353 0 .24.069.434.207.584.137.149.332.224.584.224zm-.09-6.521c-.036.216-.054.431-.054.647 0 .574.324.861.97.861.526 0 .964-.184 1.311-.556l1.006-5.73h3.054l-1.581 8.927c-.264 1.52-.865 2.725-1.805 3.611-.94.886-2.015 1.329-3.225 1.329s-2.08-.222-2.613-.665c-.533-.442-.8-1.023-.8-1.742 0-1.018.63-1.922 1.886-2.713-.682-.167-1.113-.509-1.293-1.023-.108-.288-.161-.611-.161-.97 0-.36.029-.724.089-1.096l1.006-5.658H4.65l-.844 4.778zM26.043 4.098L23.78 17.031 20.529 17.031 21.355 12.36 17.853 12.36 17.043 17.031 13.793 17.031 16.074 4.098 19.307 4.098 18.337 9.559 21.84 9.559 22.81 4.098zM31.683 12.055c.024-.12.036-.272.036-.458 0-.185-.078-.392-.234-.62-.156-.227-.427-.34-.817-.34-.389 0-.716.128-.979.386-.263.257-.431.602-.503 1.032l-.233 1.347c-.024.12-.036.273-.036.459s.078.386.233.6c.156.217.428.324.818.324.389 0 .715-.134.978-.403.264-.27.432-.596.503-.98l.234-1.347zm-.485-3.915c1.294 0 2.27.281 2.927.844.516.443.774 1.06.774 1.85 0 .263-.03.55-.09.862l-.378 2.102c-.227 1.269-.757 2.168-1.59 2.694-.832.527-1.943.79-3.33.79-1.392 0-2.408-.263-3.055-.79-.48-.396-.72-.988-.72-1.778 0-.275.032-.581.09-.916l.378-2.102c.42-2.37 2.084-3.556 4.994-3.556zM39.263 17.282c-1.39 0-2.389-.311-3-.934-.455-.454-.683-1.065-.683-1.831 0-.252.024-.521.072-.81l1.222-6.95 3.287-1.366-.521 3h4.958l-.45 2.532H39.19l-.36 2.03c-.047.228-.073.431-.073.611 0 .754.361 1.132 1.08 1.132.382 0 .702-.162.96-.485.258-.324.434-.755.53-1.293h2.981c-.503 2.91-2.185 4.364-5.046 4.364M49.106 14.696c.335 0 .647-.108.934-.324.288-.215.467-.539.538-.97l.234-1.347c.025-.12.036-.27.036-.448 0-.18-.077-.372-.233-.576-.156-.203-.426-.305-.808-.305-.623 0-1.03.15-1.221.449l-.54 3.017c.168.336.521.504 1.06.504m1.868-6.538c1.221 0 2.065.323 2.533.97.335.442.503 1.006.503 1.688 0 .276-.03.569-.09.88l-.36 2.102c-.202 1.138-.64 2.003-1.31 2.595-.671.593-1.51.89-2.516.89-1.005 0-1.706-.27-2.1-.809l-.97 5.55H43.61l2.407-13.633h2.766l-.09.485c.562-.478 1.323-.718 2.281-.718M57.889 14.265c0 .311.158.466.476.466.317 0 .584-.059.8-.179l-.09 2.03c-.575.467-1.222.7-1.94.7-1.09 0-1.797-.251-2.12-.754-.204-.324-.305-.676-.305-1.06 0-.383.023-.718.071-1.006l1.96-11.064h3.052l-1.886 10.65c-.011.073-.018.145-.018.217M62.847 13.402c-.024.108-.036.259-.036.45s.09.38.269.566c.18.185.482.277.907.277.425 0 .794-.166 1.105-.502l.539-3.017c-.132-.3-.444-.45-.934-.45-.922 0-1.461.443-1.617 1.33l-.233 1.346zm5.316.863c0 .311.159.467.476.467.318 0 .585-.06.8-.18l-.09 2.03c-.574.467-1.222.7-1.94.7-1.317 0-2.047-.478-2.192-1.437-.599.959-1.478 1.437-2.64 1.437-1.964 0-2.945-.844-2.945-2.533 0-.287.03-.603.09-.95l.376-2.103c.192-1.078.631-1.937 1.32-2.578.69-.64 1.587-.96 2.695-.96 1.107 0 1.858.258 2.255.771l.09-.539h2.73l-1.006 5.659c-.012.072-.019.144-.019.216zM73.643 17.282c-2.491 0-3.737-.862-3.737-2.586 0-.24.024-.497.072-.773l.378-2.226c.191-1.15.715-2.03 1.571-2.641.856-.611 1.942-.923 3.26-.934 2.55 0 3.827.886 3.827 2.658 0 .383-.046.728-.136 1.033-.09.305-.182.512-.278.62l-.144.179h-3.054c.3-.263.45-.575.45-.934 0-.646-.324-.97-.97-.97-.384 0-.713.114-.987.341-.276.228-.456.575-.54 1.042l-.234 1.312c-.023.12-.035.233-.035.341 0 .635.394.952 1.185.952.263 0 .5-.084.71-.252.21-.167.332-.352.368-.557l2.982.036c-.395 2.24-1.958 3.36-4.688 3.36M85.138 11.894c.048-.204.071-.392.071-.566 0-.174-.077-.35-.233-.53-.156-.18-.403-.27-.745-.27-.342 0-.652.114-.934.342-.282.227-.477.569-.584 1.024h2.425zm-2.155 5.388c-2.491 0-3.737-.861-3.737-2.586 0-.24.024-.497.072-.772l.377-2.228c.204-1.15.734-2.032 1.59-2.65.856-.616 1.99-.925 3.404-.925 2.406 0 3.611.91 3.611 2.73 0 .264-.025.552-.073.863l-.215 1.275h-5.479l-.072.413c-.023.144-.036.276-.036.396 0 .658.39.987 1.168.987.288 0 .532-.089.737-.269.203-.18.323-.389.359-.628l2.981.036c-.395 2.24-1.957 3.358-4.687 3.358z" transform="translate(-24 -16) translate(24 16) translate(14.516 .057)"/>
                    <g transform="translate(-24 -16) translate(24 16) translate(14.516 .057) translate(90.968)">
                        <mask id="5vta37bceb" fill="#fff">
                            <use xlink:href="#hrhrkg3i7a"/>
                        </mask>
                        <path fill="#BC3939" d="M11.083 5.272c-.131-.215-.387-.318-.63-.25-.241.068-.409.288-.409.539 0 .683-.555 1.239-1.24 1.239-.683 0-1.238-.556-1.238-1.24V.872c0-.226-.136-.43-.345-.517-.21-.087-.45-.04-.61.12-.063.063-1.555 1.565-3.067 3.833-.891 1.337-1.603 2.664-2.116 3.942-.647 1.62-.975 3.172-.975 4.61 0 3.614 2.94 6.554 6.554 6.554 3.613 0 6.554-2.94 6.554-6.553 0-2.313-.834-4.866-2.478-7.588" mask="url(#5vta37bceb)"/>
                    </g>
                </g>
            </g>
        </g>
    </g>
</svg>
